<mxfile host="app.diagrams.net" modified="2023-11-22T18:07:02.248Z" agent="Mozilla/5.0 (Windows NT 10.0; Win64; x64; rv:120.0) Gecko/20100101 Firefox/120.0" etag="8ZdqV7KGiGTI0UcTZaEd" version="22.1.3" type="device">
  <diagram name="第 1 页" id="PntBlHJ3O7Vf_ajXf3IN">
    <mxGraphModel dx="1050" dy="491" grid="1" gridSize="10" guides="0" tooltips="1" connect="1" arrows="1" fold="1" page="1" pageScale="1" pageWidth="1600" pageHeight="900" math="0" shadow="0">
      <root>
        <mxCell id="0" />
        <mxCell id="1" parent="0" />
        <mxCell id="6tp3pP5OOOMZVlwxjCtn-2" value="teacher_message" style="ellipse;whiteSpace=wrap;html=1;" parent="1" vertex="1">
          <mxGeometry x="85" y="260" width="110" height="50" as="geometry" />
        </mxCell>
        <mxCell id="6tp3pP5OOOMZVlwxjCtn-3" value="code" style="ellipse;whiteSpace=wrap;html=1;" parent="1" vertex="1">
          <mxGeometry x="126.25" y="360" width="40" height="20" as="geometry" />
        </mxCell>
        <mxCell id="6tp3pP5OOOMZVlwxjCtn-4" value="title" style="ellipse;whiteSpace=wrap;html=1;" parent="1" vertex="1">
          <mxGeometry x="112.5" y="310" width="50" height="20" as="geometry" />
        </mxCell>
        <mxCell id="6tp3pP5OOOMZVlwxjCtn-5" value="id" style="ellipse;whiteSpace=wrap;html=1;fontStyle=4" parent="1" vertex="1">
          <mxGeometry x="122.5" y="330" width="30" height="20" as="geometry" />
        </mxCell>
        <mxCell id="6tp3pP5OOOMZVlwxjCtn-9" value="category" style="ellipse;whiteSpace=wrap;html=1;" parent="1" vertex="1">
          <mxGeometry x="180" y="550" width="70" height="20" as="geometry" />
        </mxCell>
        <mxCell id="6tp3pP5OOOMZVlwxjCtn-10" value="link" style="ellipse;whiteSpace=wrap;html=1;" parent="1" vertex="1">
          <mxGeometry x="260" y="560" width="40" height="20" as="geometry" />
        </mxCell>
        <mxCell id="6tp3pP5OOOMZVlwxjCtn-12" value="CourseResource" style="shape=ext;margin=3;double=1;whiteSpace=wrap;html=1;align=center;" parent="1" vertex="1">
          <mxGeometry x="197.5" y="480" width="115" height="40" as="geometry" />
        </mxCell>
        <mxCell id="6tp3pP5OOOMZVlwxjCtn-13" value="Course" style="whiteSpace=wrap;html=1;align=center;" parent="1" vertex="1">
          <mxGeometry x="205" y="330" width="100" height="40" as="geometry" />
        </mxCell>
        <mxCell id="6tp3pP5OOOMZVlwxjCtn-30" style="edgeStyle=orthogonalEdgeStyle;rounded=0;orthogonalLoop=1;jettySize=auto;html=1;exitX=0.5;exitY=1;exitDx=0;exitDy=0;entryX=0.5;entryY=0;entryDx=0;entryDy=0;shape=link;" parent="1" source="6tp3pP5OOOMZVlwxjCtn-18" target="6tp3pP5OOOMZVlwxjCtn-12" edge="1">
          <mxGeometry relative="1" as="geometry" />
        </mxCell>
        <mxCell id="6tp3pP5OOOMZVlwxjCtn-31" style="edgeStyle=orthogonalEdgeStyle;rounded=0;orthogonalLoop=1;jettySize=auto;html=1;exitX=0.5;exitY=0;exitDx=0;exitDy=0;entryX=0.5;entryY=1;entryDx=0;entryDy=0;" parent="1" source="6tp3pP5OOOMZVlwxjCtn-18" target="6tp3pP5OOOMZVlwxjCtn-13" edge="1">
          <mxGeometry relative="1" as="geometry" />
        </mxCell>
        <mxCell id="6tp3pP5OOOMZVlwxjCtn-18" value="contains" style="shape=rhombus;double=1;perimeter=rhombusPerimeter;whiteSpace=wrap;html=1;align=center;" parent="1" vertex="1">
          <mxGeometry x="195" y="400" width="120" height="60" as="geometry" />
        </mxCell>
        <mxCell id="6tp3pP5OOOMZVlwxjCtn-27" value="CourseClass" style="shape=ext;margin=3;double=1;whiteSpace=wrap;html=1;align=center;" parent="1" vertex="1">
          <mxGeometry x="205" y="150" width="100" height="40" as="geometry" />
        </mxCell>
        <mxCell id="6tp3pP5OOOMZVlwxjCtn-28" value="type" style="ellipse;whiteSpace=wrap;html=1;" parent="1" vertex="1">
          <mxGeometry x="126.25" y="100" width="55" height="20" as="geometry" />
        </mxCell>
        <mxCell id="6tp3pP5OOOMZVlwxjCtn-36" value="end_time" style="ellipse;whiteSpace=wrap;html=1;" parent="1" vertex="1">
          <mxGeometry x="271.25" y="80" width="70" height="30" as="geometry" />
        </mxCell>
        <mxCell id="6tp3pP5OOOMZVlwxjCtn-37" value="venue" style="ellipse;whiteSpace=wrap;html=1;" parent="1" vertex="1">
          <mxGeometry x="291.25" y="120" width="60" height="20" as="geometry" />
        </mxCell>
        <mxCell id="6tp3pP5OOOMZVlwxjCtn-62" style="edgeStyle=orthogonalEdgeStyle;rounded=0;orthogonalLoop=1;jettySize=auto;html=1;exitX=0.5;exitY=1;exitDx=0;exitDy=0;entryX=0;entryY=0.5;entryDx=0;entryDy=0;shape=link;" parent="1" source="6tp3pP5OOOMZVlwxjCtn-40" target="6tp3pP5OOOMZVlwxjCtn-60" edge="1">
          <mxGeometry relative="1" as="geometry" />
        </mxCell>
        <mxCell id="6tp3pP5OOOMZVlwxjCtn-40" value="Person" style="rounded=0;whiteSpace=wrap;html=1;" parent="1" vertex="1">
          <mxGeometry x="500" y="140" width="70" height="30" as="geometry" />
        </mxCell>
        <mxCell id="6tp3pP5OOOMZVlwxjCtn-42" value="&lt;div&gt;&lt;span style=&quot;border-bottom: 1px dotted&quot;&gt;start_time&lt;/span&gt;&lt;/div&gt;" style="ellipse;whiteSpace=wrap;html=1;align=center;" parent="1" vertex="1">
          <mxGeometry x="171.25" y="80" width="90" height="25" as="geometry" />
        </mxCell>
        <mxCell id="6tp3pP5OOOMZVlwxjCtn-45" style="edgeStyle=orthogonalEdgeStyle;rounded=0;orthogonalLoop=1;jettySize=auto;html=1;exitX=0.5;exitY=0;exitDx=0;exitDy=0;entryX=0.5;entryY=1;entryDx=0;entryDy=0;shape=link;" parent="1" source="6tp3pP5OOOMZVlwxjCtn-43" target="6tp3pP5OOOMZVlwxjCtn-27" edge="1">
          <mxGeometry relative="1" as="geometry" />
        </mxCell>
        <mxCell id="6tp3pP5OOOMZVlwxjCtn-46" style="edgeStyle=orthogonalEdgeStyle;rounded=0;orthogonalLoop=1;jettySize=auto;html=1;exitX=0.5;exitY=1;exitDx=0;exitDy=0;entryX=0.5;entryY=0;entryDx=0;entryDy=0;shape=flexArrow;" parent="1" source="6tp3pP5OOOMZVlwxjCtn-43" target="6tp3pP5OOOMZVlwxjCtn-13" edge="1">
          <mxGeometry relative="1" as="geometry" />
        </mxCell>
        <mxCell id="6tp3pP5OOOMZVlwxjCtn-43" value="has" style="shape=rhombus;double=1;perimeter=rhombusPerimeter;whiteSpace=wrap;html=1;align=center;" parent="1" vertex="1">
          <mxGeometry x="195" y="220" width="120" height="60" as="geometry" />
        </mxCell>
        <mxCell id="6tp3pP5OOOMZVlwxjCtn-47" value="Account" style="rounded=0;whiteSpace=wrap;html=1;" parent="1" vertex="1">
          <mxGeometry x="560" y="470" width="70" height="30" as="geometry" />
        </mxCell>
        <mxCell id="6tp3pP5OOOMZVlwxjCtn-49" value="last_login_date" style="ellipse;whiteSpace=wrap;html=1;" parent="1" vertex="1">
          <mxGeometry x="490" y="535" width="100" height="20" as="geometry" />
        </mxCell>
        <mxCell id="6tp3pP5OOOMZVlwxjCtn-50" value="last_login_duration" style="ellipse;whiteSpace=wrap;html=1;" parent="1" vertex="1">
          <mxGeometry x="625" y="540" width="110" height="20" as="geometry" />
        </mxCell>
        <mxCell id="6tp3pP5OOOMZVlwxjCtn-52" value="email" style="ellipse;whiteSpace=wrap;html=1;" parent="1" vertex="1">
          <mxGeometry x="460" y="100" width="60" height="30" as="geometry" />
        </mxCell>
        <mxCell id="6tp3pP5OOOMZVlwxjCtn-53" value="name" style="ellipse;whiteSpace=wrap;html=1;" parent="1" vertex="1">
          <mxGeometry x="540" y="95" width="50" height="30" as="geometry" />
        </mxCell>
        <mxCell id="6tp3pP5OOOMZVlwxjCtn-75" style="rounded=0;orthogonalLoop=1;jettySize=auto;html=1;exitX=0.5;exitY=1;exitDx=0;exitDy=0;entryX=0.5;entryY=0;entryDx=0;entryDy=0;endArrow=none;endFill=0;" parent="1" source="6tp3pP5OOOMZVlwxjCtn-60" target="6tp3pP5OOOMZVlwxjCtn-65" edge="1">
          <mxGeometry relative="1" as="geometry" />
        </mxCell>
        <mxCell id="6tp3pP5OOOMZVlwxjCtn-76" style="rounded=0;orthogonalLoop=1;jettySize=auto;html=1;exitX=0.5;exitY=0;exitDx=0;exitDy=0;entryX=0.5;entryY=0;entryDx=0;entryDy=0;endArrow=none;endFill=0;strokeColor=default;" parent="1" source="6tp3pP5OOOMZVlwxjCtn-60" target="6tp3pP5OOOMZVlwxjCtn-64" edge="1">
          <mxGeometry relative="1" as="geometry" />
        </mxCell>
        <mxCell id="6tp3pP5OOOMZVlwxjCtn-60" value="ISA" style="triangle;whiteSpace=wrap;html=1;rotation=90;" parent="1" vertex="1">
          <mxGeometry x="505" y="210" width="60" height="80" as="geometry" />
        </mxCell>
        <mxCell id="6tp3pP5OOOMZVlwxjCtn-64" value="Student" style="rounded=0;whiteSpace=wrap;html=1;" parent="1" vertex="1">
          <mxGeometry x="550" y="340" width="70" height="30" as="geometry" />
        </mxCell>
        <mxCell id="6tp3pP5OOOMZVlwxjCtn-65" value="Teacher" style="rounded=0;whiteSpace=wrap;html=1;" parent="1" vertex="1">
          <mxGeometry x="450" y="310" width="58.75" height="30" as="geometry" />
        </mxCell>
        <mxCell id="6tp3pP5OOOMZVlwxjCtn-70" value="&lt;u&gt;uid&lt;/u&gt;" style="ellipse;whiteSpace=wrap;html=1;" parent="1" vertex="1">
          <mxGeometry x="600" y="110" width="60" height="30" as="geometry" />
        </mxCell>
        <mxCell id="6tp3pP5OOOMZVlwxjCtn-91" style="rounded=0;orthogonalLoop=1;jettySize=auto;html=1;exitX=0.5;exitY=0;exitDx=0;exitDy=0;entryX=0.5;entryY=1;entryDx=0;entryDy=0;endArrow=none;endFill=0;" parent="1" source="6tp3pP5OOOMZVlwxjCtn-71" target="6tp3pP5OOOMZVlwxjCtn-90" edge="1">
          <mxGeometry relative="1" as="geometry" />
        </mxCell>
        <mxCell id="6tp3pP5OOOMZVlwxjCtn-96" style="rounded=0;orthogonalLoop=1;jettySize=auto;html=1;exitX=0;exitY=0.5;exitDx=0;exitDy=0;entryX=1;entryY=0.5;entryDx=0;entryDy=0;endArrow=none;endFill=0;" parent="1" source="6tp3pP5OOOMZVlwxjCtn-71" target="6tp3pP5OOOMZVlwxjCtn-13" edge="1">
          <mxGeometry relative="1" as="geometry" />
        </mxCell>
        <mxCell id="6tp3pP5OOOMZVlwxjCtn-99" style="rounded=0;orthogonalLoop=1;jettySize=auto;html=1;exitX=1;exitY=0.5;exitDx=0;exitDy=0;entryX=0;entryY=0.5;entryDx=0;entryDy=0;endArrow=none;endFill=0;" parent="1" source="6tp3pP5OOOMZVlwxjCtn-71" target="6tp3pP5OOOMZVlwxjCtn-65" edge="1">
          <mxGeometry relative="1" as="geometry" />
        </mxCell>
        <mxCell id="6tp3pP5OOOMZVlwxjCtn-71" value="teaches" style="shape=rhombus;perimeter=rhombusPerimeter;whiteSpace=wrap;html=1;align=center;" parent="1" vertex="1">
          <mxGeometry x="340" y="300" width="80" height="30" as="geometry" />
        </mxCell>
        <mxCell id="6tp3pP5OOOMZVlwxjCtn-85" style="edgeStyle=orthogonalEdgeStyle;rounded=0;orthogonalLoop=1;jettySize=auto;html=1;exitX=0.5;exitY=1;exitDx=0;exitDy=0;shape=flexArrow;entryX=0.5;entryY=0;entryDx=0;entryDy=0;" parent="1" source="6tp3pP5OOOMZVlwxjCtn-77" target="6tp3pP5OOOMZVlwxjCtn-47" edge="1">
          <mxGeometry relative="1" as="geometry">
            <mxPoint x="650" y="370" as="targetPoint" />
            <Array as="points">
              <mxPoint x="595" y="440" />
            </Array>
          </mxGeometry>
        </mxCell>
        <mxCell id="6tp3pP5OOOMZVlwxjCtn-77" value="creates" style="shape=rhombus;perimeter=rhombusPerimeter;whiteSpace=wrap;html=1;align=center;" parent="1" vertex="1">
          <mxGeometry x="550" y="410" width="75" height="30" as="geometry" />
        </mxCell>
        <mxCell id="6tp3pP5OOOMZVlwxjCtn-86" value="&lt;span style=&quot;border-bottom: 1px dotted&quot;&gt;title&lt;/span&gt;" style="ellipse;whiteSpace=wrap;html=1;align=center;" parent="1" vertex="1">
          <mxGeometry x="310" y="530" width="40" height="30" as="geometry" />
        </mxCell>
        <mxCell id="6tp3pP5OOOMZVlwxjCtn-87" value="filetype" style="ellipse;whiteSpace=wrap;html=1;align=center;" parent="1" vertex="1">
          <mxGeometry x="130" y="520" width="60" height="20" as="geometry" />
        </mxCell>
        <mxCell id="6tp3pP5OOOMZVlwxjCtn-97" style="rounded=0;orthogonalLoop=1;jettySize=auto;html=1;exitX=0;exitY=0.5;exitDx=0;exitDy=0;entryX=1;entryY=0.5;entryDx=0;entryDy=0;endArrow=none;endFill=0;" parent="1" source="6tp3pP5OOOMZVlwxjCtn-89" target="6tp3pP5OOOMZVlwxjCtn-13" edge="1">
          <mxGeometry relative="1" as="geometry" />
        </mxCell>
        <mxCell id="6tp3pP5OOOMZVlwxjCtn-98" style="rounded=0;orthogonalLoop=1;jettySize=auto;html=1;exitX=1;exitY=0.5;exitDx=0;exitDy=0;entryX=0;entryY=0.5;entryDx=0;entryDy=0;endArrow=none;endFill=0;" parent="1" source="6tp3pP5OOOMZVlwxjCtn-89" target="6tp3pP5OOOMZVlwxjCtn-64" edge="1">
          <mxGeometry relative="1" as="geometry" />
        </mxCell>
        <mxCell id="6tp3pP5OOOMZVlwxjCtn-89" value="enrolls" style="shape=rhombus;perimeter=rhombusPerimeter;whiteSpace=wrap;html=1;align=center;" parent="1" vertex="1">
          <mxGeometry x="350" y="350" width="70" height="30" as="geometry" />
        </mxCell>
        <mxCell id="6tp3pP5OOOMZVlwxjCtn-90" value="role" style="ellipse;whiteSpace=wrap;html=1;" parent="1" vertex="1">
          <mxGeometry x="360" y="250" width="60" height="30" as="geometry" />
        </mxCell>
        <mxCell id="kAA7FS76Wi96MNWLrwsP-2" value="" style="endArrow=none;html=1;rounded=0;shape=link;exitX=0.5;exitY=0;exitDx=0;exitDy=0;entryX=0.5;entryY=1;entryDx=0;entryDy=0;" edge="1" parent="1" source="6tp3pP5OOOMZVlwxjCtn-77" target="6tp3pP5OOOMZVlwxjCtn-64">
          <mxGeometry width="50" height="50" relative="1" as="geometry">
            <mxPoint x="510" y="410" as="sourcePoint" />
            <mxPoint x="560" y="360" as="targetPoint" />
          </mxGeometry>
        </mxCell>
        <mxCell id="kAA7FS76Wi96MNWLrwsP-3" value="" style="endArrow=none;html=1;rounded=0;exitX=1;exitY=0.5;exitDx=0;exitDy=0;entryX=0;entryY=0.5;entryDx=0;entryDy=0;" edge="1" parent="1" source="6tp3pP5OOOMZVlwxjCtn-3" target="6tp3pP5OOOMZVlwxjCtn-13">
          <mxGeometry width="50" height="50" relative="1" as="geometry">
            <mxPoint x="170" y="370" as="sourcePoint" />
            <mxPoint x="220" y="320" as="targetPoint" />
          </mxGeometry>
        </mxCell>
        <mxCell id="kAA7FS76Wi96MNWLrwsP-4" value="" style="endArrow=none;html=1;rounded=0;exitX=0;exitY=0.5;exitDx=0;exitDy=0;entryX=1;entryY=0.5;entryDx=0;entryDy=0;" edge="1" parent="1" source="6tp3pP5OOOMZVlwxjCtn-13" target="6tp3pP5OOOMZVlwxjCtn-5">
          <mxGeometry width="50" height="50" relative="1" as="geometry">
            <mxPoint x="200" y="360" as="sourcePoint" />
            <mxPoint x="250" y="310" as="targetPoint" />
          </mxGeometry>
        </mxCell>
        <mxCell id="kAA7FS76Wi96MNWLrwsP-5" value="" style="endArrow=none;html=1;rounded=0;exitX=1;exitY=0.5;exitDx=0;exitDy=0;entryX=0;entryY=0.5;entryDx=0;entryDy=0;" edge="1" parent="1" source="6tp3pP5OOOMZVlwxjCtn-4" target="6tp3pP5OOOMZVlwxjCtn-13">
          <mxGeometry width="50" height="50" relative="1" as="geometry">
            <mxPoint x="180" y="330" as="sourcePoint" />
            <mxPoint x="230" y="290" as="targetPoint" />
          </mxGeometry>
        </mxCell>
        <mxCell id="kAA7FS76Wi96MNWLrwsP-7" value="" style="endArrow=none;html=1;rounded=0;exitX=0;exitY=0.5;exitDx=0;exitDy=0;entryX=1;entryY=1;entryDx=0;entryDy=0;" edge="1" parent="1" source="6tp3pP5OOOMZVlwxjCtn-13" target="6tp3pP5OOOMZVlwxjCtn-2">
          <mxGeometry width="50" height="50" relative="1" as="geometry">
            <mxPoint x="200" y="360" as="sourcePoint" />
            <mxPoint x="250" y="310" as="targetPoint" />
          </mxGeometry>
        </mxCell>
        <mxCell id="kAA7FS76Wi96MNWLrwsP-8" value="" style="endArrow=none;html=1;rounded=0;entryX=0.5;entryY=0;entryDx=0;entryDy=0;exitX=0;exitY=0.5;exitDx=0;exitDy=0;" edge="1" parent="1" source="6tp3pP5OOOMZVlwxjCtn-37" target="6tp3pP5OOOMZVlwxjCtn-27">
          <mxGeometry width="50" height="50" relative="1" as="geometry">
            <mxPoint x="200" y="190" as="sourcePoint" />
            <mxPoint x="250" y="140" as="targetPoint" />
          </mxGeometry>
        </mxCell>
        <mxCell id="kAA7FS76Wi96MNWLrwsP-9" value="" style="endArrow=none;html=1;rounded=0;entryX=0.5;entryY=0;entryDx=0;entryDy=0;exitX=0;exitY=1;exitDx=0;exitDy=0;" edge="1" parent="1" source="6tp3pP5OOOMZVlwxjCtn-36" target="6tp3pP5OOOMZVlwxjCtn-27">
          <mxGeometry width="50" height="50" relative="1" as="geometry">
            <mxPoint x="200" y="190" as="sourcePoint" />
            <mxPoint x="250" y="140" as="targetPoint" />
          </mxGeometry>
        </mxCell>
        <mxCell id="kAA7FS76Wi96MNWLrwsP-10" value="" style="endArrow=none;html=1;rounded=0;entryX=0.5;entryY=0;entryDx=0;entryDy=0;exitX=0.5;exitY=1;exitDx=0;exitDy=0;" edge="1" parent="1" source="6tp3pP5OOOMZVlwxjCtn-42" target="6tp3pP5OOOMZVlwxjCtn-27">
          <mxGeometry width="50" height="50" relative="1" as="geometry">
            <mxPoint x="200" y="190" as="sourcePoint" />
            <mxPoint x="250" y="140" as="targetPoint" />
          </mxGeometry>
        </mxCell>
        <mxCell id="kAA7FS76Wi96MNWLrwsP-11" value="" style="endArrow=none;html=1;rounded=0;entryX=0.5;entryY=0;entryDx=0;entryDy=0;exitX=0.5;exitY=1;exitDx=0;exitDy=0;" edge="1" parent="1" source="6tp3pP5OOOMZVlwxjCtn-28" target="6tp3pP5OOOMZVlwxjCtn-27">
          <mxGeometry width="50" height="50" relative="1" as="geometry">
            <mxPoint x="200" y="190" as="sourcePoint" />
            <mxPoint x="250" y="140" as="targetPoint" />
          </mxGeometry>
        </mxCell>
        <mxCell id="kAA7FS76Wi96MNWLrwsP-12" value="" style="endArrow=none;html=1;rounded=0;entryX=0;entryY=0.5;entryDx=0;entryDy=0;exitX=0.5;exitY=0;exitDx=0;exitDy=0;" edge="1" parent="1" source="6tp3pP5OOOMZVlwxjCtn-40" target="6tp3pP5OOOMZVlwxjCtn-70">
          <mxGeometry width="50" height="50" relative="1" as="geometry">
            <mxPoint x="520" y="190" as="sourcePoint" />
            <mxPoint x="570" y="140" as="targetPoint" />
          </mxGeometry>
        </mxCell>
        <mxCell id="kAA7FS76Wi96MNWLrwsP-13" value="" style="endArrow=none;html=1;rounded=0;entryX=0.5;entryY=1;entryDx=0;entryDy=0;exitX=0.5;exitY=0;exitDx=0;exitDy=0;" edge="1" parent="1" source="6tp3pP5OOOMZVlwxjCtn-40" target="6tp3pP5OOOMZVlwxjCtn-53">
          <mxGeometry width="50" height="50" relative="1" as="geometry">
            <mxPoint x="520" y="190" as="sourcePoint" />
            <mxPoint x="570" y="140" as="targetPoint" />
          </mxGeometry>
        </mxCell>
        <mxCell id="kAA7FS76Wi96MNWLrwsP-14" value="" style="endArrow=none;html=1;rounded=0;entryX=1;entryY=1;entryDx=0;entryDy=0;exitX=0.5;exitY=0;exitDx=0;exitDy=0;" edge="1" parent="1" source="6tp3pP5OOOMZVlwxjCtn-40" target="6tp3pP5OOOMZVlwxjCtn-52">
          <mxGeometry width="50" height="50" relative="1" as="geometry">
            <mxPoint x="520" y="190" as="sourcePoint" />
            <mxPoint x="570" y="140" as="targetPoint" />
          </mxGeometry>
        </mxCell>
        <mxCell id="kAA7FS76Wi96MNWLrwsP-15" value="" style="endArrow=none;html=1;rounded=0;exitX=0.5;exitY=0;exitDx=0;exitDy=0;entryX=0.5;entryY=1;entryDx=0;entryDy=0;" edge="1" parent="1" source="6tp3pP5OOOMZVlwxjCtn-49" target="6tp3pP5OOOMZVlwxjCtn-47">
          <mxGeometry width="50" height="50" relative="1" as="geometry">
            <mxPoint x="520" y="520" as="sourcePoint" />
            <mxPoint x="570" y="470" as="targetPoint" />
          </mxGeometry>
        </mxCell>
        <mxCell id="kAA7FS76Wi96MNWLrwsP-16" value="" style="endArrow=none;html=1;rounded=0;entryX=0.5;entryY=0;entryDx=0;entryDy=0;exitX=0.5;exitY=1;exitDx=0;exitDy=0;" edge="1" parent="1" source="6tp3pP5OOOMZVlwxjCtn-47" target="6tp3pP5OOOMZVlwxjCtn-50">
          <mxGeometry width="50" height="50" relative="1" as="geometry">
            <mxPoint x="520" y="520" as="sourcePoint" />
            <mxPoint x="570" y="470" as="targetPoint" />
          </mxGeometry>
        </mxCell>
        <mxCell id="kAA7FS76Wi96MNWLrwsP-17" value="" style="endArrow=none;html=1;rounded=0;entryX=0.5;entryY=1;entryDx=0;entryDy=0;exitX=1;exitY=0.5;exitDx=0;exitDy=0;" edge="1" parent="1" source="6tp3pP5OOOMZVlwxjCtn-87" target="6tp3pP5OOOMZVlwxjCtn-12">
          <mxGeometry width="50" height="50" relative="1" as="geometry">
            <mxPoint x="190" y="550" as="sourcePoint" />
            <mxPoint x="227.5" y="530" as="targetPoint" />
          </mxGeometry>
        </mxCell>
        <mxCell id="kAA7FS76Wi96MNWLrwsP-18" value="" style="endArrow=none;html=1;rounded=0;entryX=0.5;entryY=1;entryDx=0;entryDy=0;exitX=0.5;exitY=0;exitDx=0;exitDy=0;" edge="1" parent="1" source="6tp3pP5OOOMZVlwxjCtn-9" target="6tp3pP5OOOMZVlwxjCtn-12">
          <mxGeometry width="50" height="50" relative="1" as="geometry">
            <mxPoint x="180" y="520" as="sourcePoint" />
            <mxPoint x="230" y="470" as="targetPoint" />
          </mxGeometry>
        </mxCell>
        <mxCell id="kAA7FS76Wi96MNWLrwsP-19" value="" style="endArrow=none;html=1;rounded=0;entryX=0.5;entryY=0;entryDx=0;entryDy=0;exitX=0.5;exitY=1;exitDx=0;exitDy=0;" edge="1" parent="1" source="6tp3pP5OOOMZVlwxjCtn-12" target="6tp3pP5OOOMZVlwxjCtn-86">
          <mxGeometry width="50" height="50" relative="1" as="geometry">
            <mxPoint x="180" y="520" as="sourcePoint" />
            <mxPoint x="230" y="470" as="targetPoint" />
          </mxGeometry>
        </mxCell>
        <mxCell id="kAA7FS76Wi96MNWLrwsP-20" value="" style="endArrow=none;html=1;rounded=0;entryX=0.5;entryY=0;entryDx=0;entryDy=0;exitX=0.5;exitY=1;exitDx=0;exitDy=0;" edge="1" parent="1" source="6tp3pP5OOOMZVlwxjCtn-12" target="6tp3pP5OOOMZVlwxjCtn-10">
          <mxGeometry width="50" height="50" relative="1" as="geometry">
            <mxPoint x="180" y="520" as="sourcePoint" />
            <mxPoint x="230" y="470" as="targetPoint" />
          </mxGeometry>
        </mxCell>
      </root>
    </mxGraphModel>
  </diagram>
</mxfile>
